<?xml version="1.0" encoding="UTF-8" standalone="no"?>
<svg xmlns="http://www.w3.org/2000/svg" xmlns:xlink="http://www.w3.org/1999/xlink" version="1.1" width="512" height="512" viewBox="292.5 73.5 512 512"><g id="document" fill-opacity="0" fill="#ffffff" fill-rule="nonzero" font-family="none" font-weight="none" font-size="none"><rect x="399.90234" y="100.48828" transform="scale(0.73143,0.73143)" width="700" height="700" id="Shape-1-1"/></g><g fill="none" fill-rule="nonzero" stroke="#000000" stroke-width="none" stroke-linecap="none" stroke-linejoin="none" stroke-miterlimit="10" font-family="none" font-weight="none" font-size="none"><g id="stage"><g id="layer1-1"><path d="" id="Path-1" fill="#ffffff" stroke-width="1" stroke-linecap="butt" stroke-linejoin="miter"/><path d="M692.19034,490.41627c-36.88128,40.60854 -87.64772,65.69253 -143.69034,65.69253c-56.04262,0 -108.44187,-25.77535 -145.32315,-66.38389l-64.67489,-71.30679l-23.0822,-88.91812l23.0822,-88.91811l66.3077,-71.99815c36.88128,-40.60854 87.64772,-65.69253 143.69034,-65.69253c56.04262,0 106.80906,25.08399 143.69034,65.69253l66.3077,71.99815l23.0822,88.91811l-23.0822,88.91812z" id="Path-1-1" fill-opacity="0" fill="#ffffff" stroke-width="15" stroke-linecap="round" stroke-linejoin="round"/><path d="M676.33886,472.66449c-32.81265,36.12873 -77.97869,58.44552 -127.83886,58.44552c-49.86017,0 -96.47889,-22.93189 -129.29154,-59.06062l-57.54015,-63.44044l-20.53584,-79.10894l20.53584,-79.10894l58.99283,-64.05554c32.81265,-36.12873 77.97869,-58.44552 127.83886,-58.44552c49.86017,0 95.02621,22.31679 127.83886,58.44552l58.99283,64.05554l20.53584,79.10894l-20.53584,79.10894z" id="Path-63072-1" fill-opacity="0" fill="#ffffff" stroke-width="5" stroke-linecap="round" stroke-linejoin="round"/></g></g></g></svg>