<?xml version="1.0" encoding="UTF-8" standalone="no"?>
<svg xmlns="http://www.w3.org/2000/svg" xmlns:xlink="http://www.w3.org/1999/xlink" version="1.1" width="512" height="512" viewBox="292.5 73.5 512 512"><g id="document" fill-opacity="0" fill="#ffffff" fill-rule="nonzero" font-family="none" font-weight="none" font-size="none"><rect x="399.90234" y="100.48828" transform="scale(0.73143,0.73143)" width="700" height="700" id="Shape-1-1"/></g><g fill-opacity="0" fill="#ffffff" fill-rule="nonzero" stroke="#000000" stroke-width="none" stroke-linecap="round" stroke-linejoin="round" stroke-miterlimit="10" font-family="none" font-weight="none" font-size="none"><g id="stage"><g id="layer1-1"><path d="M449.34252,550.4216v-88.36865l-99.15752,-44.18432v-88.36865l24.68797,-11.0009c-2.04177,-10.74816 -3.11024,-21.841 -3.11024,-33.18342c0,-97.60931 79.12799,-176.73726 176.73726,-176.73726c97.60931,0 176.73726,79.12799 176.73726,176.73726c0,11.34241 -1.06847,22.43528 -3.11024,33.18342l24.68797,11.0009v88.36865l-99.15752,44.18432v88.36865z" id="Path-1" stroke-width="15"/><path d="M468.2204,516.15647v-74.66257l-80.27962,-37.33129v-74.66258l19.9878,-9.29464c-1.65305,-9.08109 -2.51809,-18.45348 -2.51809,-28.03666c0,-82.47001 64.06334,-149.32518 143.08953,-149.32518c79.02614,0 143.08953,66.85514 143.08953,149.32518c0,9.58322 -0.86504,18.95553 -2.51809,28.03666l19.9878,9.29464v74.66258l-80.27962,37.33129v74.66257z" id="Path-12432-1" stroke-width="5"/></g></g></g></svg>