<svg version="1.1" xmlns="http://www.w3.org/2000/svg" xmlns:xlink="http://www.w3.org/1999/xlink" width="400" height="400" viewBox="349,122,400,400"><defs><radialGradient cx="543.33567" cy="310.43936" r="294.29105" gradientUnits="userSpaceOnUse" id="color-1"><stop offset="0" stop-color="#8600c0"/><stop offset="1" stop-color="#2d2d2d"/></radialGradient></defs><g id="document" fill-opacity="0" fill="#000000" fill-rule="nonzero" stroke="#000000" stroke-width="0" stroke-linecap="butt" stroke-linejoin="miter" stroke-miterlimit="10" stroke-dasharray="" stroke-dashoffset="0" font-family="none" font-weight="none" font-size="none" text-anchor="none" style="mix-blend-mode: normal"><rect x="610.75" y="213.5" transform="scale(0.57143,0.57143)" width="700" height="700" id="Shape 1 1" vector-effect="non-scaling-stroke"/></g><g fill="none" fill-rule="nonzero" stroke="none" stroke-width="0.2" stroke-linecap="none" stroke-linejoin="none" stroke-miterlimit="10" stroke-dasharray="" stroke-dashoffset="0" font-family="none" font-weight="none" font-size="none" text-anchor="none" style="mix-blend-mode: normal"><g><g id="stage"><g id="layer1 1"><path d="M443.28088,221.22259l66.13695,-40.91728l141.60421,5.63926l46.03134,37.00499l25.85404,112.03893l2.59565,83.41434l-161.43079,45.29188l-80.24681,-11.90375l-61.43065,-35.82855l-49.89788,-34.57651l20.12051,-148.37504l19.238,-4.49061z" id="Path 1" fill="url(#color-1)" stroke-opacity="0.52" stroke="#000000" stroke-linecap="round" stroke-linejoin="round"/><g fill-opacity="0.72" fill="#31004f" stroke-opacity="0" stroke="#000000" stroke-linecap="butt" stroke-linejoin="miter" font-family="font-BebasNeueLight" font-weight="normal" font-size="30" text-anchor="middle"><text x="251.97815" y="222.99161" transform="rotate(-11.57516) scale(1.47753,1.88872) skewX(-5.9499)">ᛈ</text><text x="302.14147" y="205.52131" transform="rotate(-6.93188) scale(1.46972,1.89875) skewX(-3.63456)">ᚢ</text><text x="351.66105" y="184.67084" transform="rotate(-2.19741) scale(1.46579,1.90385) skewX(-1.16374)">ᚱ</text><text x="396.85837" y="162.25923" transform="rotate(2.25941) scale(1.46581,1.90382) skewX(1.19649)">ᛈ</text><text x="439.34038" y="137.97493" transform="rotate(6.57194) scale(1.46928,1.89932) skewX(3.44971)">ᛚ</text><text x="483.65365" y="108.9567" transform="rotate(11.20594) scale(1.47677,1.88969) skewX(5.7713)">ᛖ</text></g></g></g></g></g></svg>