<svg version="1.1" xmlns="http://www.w3.org/2000/svg" xmlns:xlink="http://www.w3.org/1999/xlink" width="400" height="400" viewBox="349,122,400,400"><defs><radialGradient cx="544.72594" cy="334.45108" r="250.28549" gradientUnits="userSpaceOnUse" id="color-1"><stop offset="0" stop-color="#b80000"/><stop offset="1" stop-color="#250000"/></radialGradient></defs><g id="document" fill-opacity="0" fill="#000000" fill-rule="nonzero" stroke="#000000" stroke-width="0" stroke-linecap="butt" stroke-linejoin="miter" stroke-miterlimit="10" stroke-dasharray="" stroke-dashoffset="0" font-family="none" font-weight="none" font-size="none" text-anchor="none" style="mix-blend-mode: normal"><rect x="610.75" y="213.5" transform="scale(0.57143,0.57143)" width="700" height="700" id="Shape 1 1" vector-effect="non-scaling-stroke"/></g><g fill="none" fill-rule="nonzero" stroke="none" stroke-width="0.2" stroke-linecap="none" stroke-linejoin="none" stroke-miterlimit="10" stroke-dasharray="" stroke-dashoffset="0" font-family="none" font-weight="none" font-size="none" text-anchor="none" style="mix-blend-mode: normal"><g><g id="stage"><g id="layer1 1"><path d="M479.42864,259.2454l95.59801,-10.99305l89.19799,8.06697l44.84465,19.72851l11.08378,60.18066l-21.07239,48.15653l-97.60307,7.59257l-97.58605,3.77006l-82.31663,-4.58479l-38.35743,-30.58971l-5.37057,-47.15348l37.02149,-39.97937z" id="Path 1" fill="url(#color-1)" stroke-opacity="0" stroke="#000000" stroke-linecap="round" stroke-linejoin="round"/><g fill="#520000" stroke-opacity="0" stroke="#d0d0d0" stroke-linecap="butt" stroke-linejoin="miter" font-family="font-BebasNeueLight" font-weight="normal" font-size="30" text-anchor="middle"><text x="328.92843" y="244.28483" transform="rotate(-12.3408) scale(1.2082,1.78278) skewX(-10.11395)">ᚲ</text><text x="373.1874" y="228.31133" transform="rotate(-8.46638) scale(1.19989,1.79512) skewX(-7.09199)">ᚱ</text><text x="416.04344" y="210.61892" transform="rotate(-4.60555) scale(1.1947,1.80291) skewX(-3.91175)">ᛁ</text><text x="461.26062" y="189.43816" transform="rotate(-0.4217) scale(1.19255,1.80617) skewX(-0.36027)">ᛗ</text><text x="506.58075" y="165.43954" transform="rotate(3.87766) scale(1.19407,1.80387) skewX(3.29913)">ᛊ</text><text x="548.60138" y="140.51245" transform="rotate(7.95145) scale(1.19902,1.79643) skewX(6.67608)">ᛟ</text><text x="590.86929" y="112.60681" transform="rotate(12.12718) scale(1.20766,1.78358) skewX(9.95287)">ᚾ</text></g></g></g></g></g></svg>