<svg version="1.1" xmlns="http://www.w3.org/2000/svg" xmlns:xlink="http://www.w3.org/1999/xlink" width="400" height="400" viewBox="349,122,400,400"><defs><radialGradient cx="540.88181" cy="333.72583" r="291.38556" gradientUnits="userSpaceOnUse" id="color-1"><stop offset="0" stop-color="#fff800" stop-opacity="0.8"/><stop offset="1" stop-color="#111111" stop-opacity="0.75"/></radialGradient></defs><g id="document" fill-opacity="0" fill="#000000" fill-rule="nonzero" stroke="#000000" stroke-width="0" stroke-linecap="butt" stroke-linejoin="miter" stroke-miterlimit="10" stroke-dasharray="" stroke-dashoffset="0" font-family="none" font-weight="none" font-size="none" text-anchor="none" style="mix-blend-mode: normal"><rect x="610.75" y="213.5" transform="scale(0.57143,0.57143)" width="700" height="700" id="Shape 1 1" vector-effect="non-scaling-stroke"/></g><g fill="none" fill-rule="nonzero" stroke="none" stroke-width="0.2" stroke-linecap="none" stroke-linejoin="none" stroke-miterlimit="10" stroke-dasharray="" stroke-dashoffset="0" font-family="none" font-weight="none" font-size="none" text-anchor="none" style="mix-blend-mode: normal"><g><g id="stage"><g id="layer1 1"><path d="M664.83978,358.11092l-80.95973,56.87232l-90.91821,34.42587l-100.5642,-24.99097l-12.1094,-79.1819l44.14898,-73.57679l65.29397,-50.38966l91.241,-26.67889l89.4736,8.61144l23.92012,26.95883l18.13202,49.64498l5.21382,24.92141z" id="Path 1" fill="url(#color-1)" stroke-opacity="0" stroke="#000000" stroke-linecap="round" stroke-linejoin="round"/><g fill="#847900" stroke-opacity="0" stroke="#d0d0d0" stroke-linecap="butt" stroke-linejoin="miter" font-family="font-BebasNeueLight" font-weight="normal" font-size="30" text-anchor="middle"><text x="244.55426" y="313.14998" transform="rotate(-14.73742) scale(1.34023,1.40816) skewX(-0.92823)">ᚷ</text><text x="299.75909" y="296.80716" transform="rotate(-11.12048) scale(1.33918,1.40927) skewX(-0.56493)">ᛟ</text><text x="351.12486" y="278.27224" transform="rotate(-7.68593) scale(1.33866,1.40981) skewX(-0.21148)">ᛚ</text><text x="403.47457" y="255.86386" transform="rotate(-4.10291) scale(1.33863,1.40985) skewX(0.16041)">ᛞ</text><text x="459.08043" y="227.85512" transform="rotate(-0.18663) scale(1.33918,1.40927) skewX(0.56381)">ᛖ</text><text x="509.78835" y="198.16463" transform="rotate(3.50489) scale(1.34025,1.40814) skewX(0.9345)">ᚾ</text></g></g></g></g></g></svg>