<svg version="1.1" xmlns="http://www.w3.org/2000/svg" xmlns:xlink="http://www.w3.org/1999/xlink" width="400" height="400" viewBox="349,122,400,400"><defs><radialGradient cx="485.22668" cy="329.38541" r="255.80825" gradientUnits="userSpaceOnUse" id="color-1"><stop offset="0" stop-color="#454545"/><stop offset="1" stop-color="#898989"/></radialGradient></defs><g id="document" fill-opacity="0" fill="#000000" fill-rule="nonzero" stroke="#000000" stroke-width="0" stroke-linecap="butt" stroke-linejoin="miter" stroke-miterlimit="10" stroke-dasharray="" stroke-dashoffset="0" font-family="none" font-weight="none" font-size="none" text-anchor="none" style="mix-blend-mode: normal"><rect x="610.75" y="213.5" transform="scale(0.57143,0.57143)" width="700" height="700" id="Shape 1 1" vector-effect="non-scaling-stroke"/></g><g fill="none" fill-rule="nonzero" stroke="none" stroke-width="0.2" stroke-linecap="none" stroke-linejoin="none" stroke-miterlimit="10" stroke-dasharray="" stroke-dashoffset="0" font-family="none" font-weight="none" font-size="none" text-anchor="none" style="mix-blend-mode: normal"><g><g id="stage"><g id="layer1 1"><path d="M473.8386,180.05976l61.68663,34.24951l99.87148,9.63305l85.33613,34.11689l-35.20982,96.16669l-43.31001,77.66156l-96.41716,32.0528l-70.59307,-10.14724l-54.0405,-30.5417l-43.89513,-29.47441l17.7,-126.48086l41.75792,-54.22425z" id="Path 1" fill="url(#color-1)" stroke-opacity="0.52" stroke="#000000" stroke-linecap="round" stroke-linejoin="round"/><g fill-opacity="0.72" fill="#282828" stroke="none" stroke-linecap="butt" stroke-linejoin="miter" font-family="font-BebasNeueLight" font-weight="normal" font-size="30" text-anchor="middle"><text x="403.29214" y="335.00922" transform="rotate(-8.27877) scale(0.97525,1.17809) skewX(-3.21242)">ᚱ</text><text x="460.56786" y="317.01966" transform="rotate(-5.39054) scale(0.97336,1.18038) skewX(-2.10986)">ᛖ</text><text x="518.68459" y="296.0302" transform="rotate(-2.40859) scale(0.97225,1.18173) skewX(-0.94754)">ᚷ</text><text x="574.86714" y="272.99707" transform="rotate(0.52584) scale(0.97198,1.18205) skewX(0.20711)">ᚢ</text><text x="626.51308" y="249.32148" transform="rotate(3.27073) scale(0.97248,1.18145) skewX(1.28532)">ᛚ</text><text x="671.9214" y="226.41639" transform="rotate(5.72388) scale(0.97354,1.18016) skewX(2.23851)">ᚨ</text><text x="718.35902" y="200.85387" transform="rotate(8.27351) scale(0.97525,1.1781) skewX(3.21044)">ᚱ</text></g></g></g></g></g></svg>